<svg xmlns="http://www.w3.org/2000/svg" width="24" height="24" viewBox="0 0 24 24">
    <g fill="none" fill-rule="evenodd">
        <path d="M0 0h24v24H0z"/>
        <path fill="currentColor" fill-rule="nonzero" d="M7 8.25c0-.414.373-.75.833-.75h2.498c0-.828.746-1.5 1.666-1.5.92 0 1.666.672 1.666 1.5h2.504c.46 0 .833.336.833.75a.75.75 0 0 1-.75.75h-8.5A.75.75 0 0 1 7 8.25zm2.007 2.25h5.987a1 1 0 0 1 .994 1.109l-.603 5.5a1 1 0 0 1-.994.891H9.609a1 1 0 0 1-.994-.891l-.603-5.5a1 1 0 0 1 .995-1.109z"/>
    </g>
</svg>
