<?xml version="1.0" encoding="UTF-8"?>
<svg width="32px" height="32px" viewBox="0 0 32 32" version="1.1" xmlns="http://www.w3.org/2000/svg" xmlns:xlink="http://www.w3.org/1999/xlink">
    <g id= stroke="none" stroke-width="1" fill="none" fill-rule="evenodd">
        <g id="ImgReply">
            <rect id="Rectangle" stroke="currentColor" stroke-width="2.66666667" opacity="0.5" x="6.66666667" y="6.66666667" width="18.6666667" height="18.6666667" rx="2.66666667"></rect>
            <circle id="Oval" fill="currentColor" fill-rule="evenodd" cx="12" cy="12" r="1.33333333"></circle>
            <path d="M11.3333333,21.3333333 L20.6666667,21.3333333 C21.0348565,21.3333333 21.3333333,21.0348565 21.3333333,20.6666667 L21.3333333,18.942809 C21.3333333,18.765998 21.2630954,18.5964288 21.1380712,18.4714045 L18.4714045,15.8047379 C18.211055,15.5443883 17.788945,15.5443883 17.5285955,15.8047379 L15.8047379,17.5285955 C15.5443883,17.788945 15.1222783,17.788945 14.8619288,17.5285955 L13.8047379,16.4714045 C13.5443883,16.211055 13.1222783,16.211055 12.8619288,16.4714045 L10.8619288,18.4714045 C10.7369046,18.5964288 10.6666667,18.765998 10.6666667,18.942809 L10.6666667,20.6666667 C10.6666667,21.0348565 10.9651435,21.3333333 11.3333333,21.3333333 Z" id="Path-11" fill="currentColor" fill-rule="evenodd"></path>
        </g>
    </g>
</svg>
